<?xml version="1.0" standalone="no"?>
<!DOCTYPE svg PUBLIC "-//W3C//DTD SVG 20010904//EN"
 "http://www.w3.org/TR/2001/REC-SVG-20010904/DTD/svg10.dtd">
<svg version="1.0" xmlns="http://www.w3.org/2000/svg"
 width="1400.000000pt" height="1400.000000pt" viewBox="0 0 1400.000000 1400.000000"
 preserveAspectRatio="xMidYMid meet">
<metadata>
Created by potrace 1.14, written by Peter Selinger 2001-2017
</metadata>
<g transform="translate(0.000000,1400.000000) scale(0.100000,-0.100000)"
fill="#000000" stroke="none">
<path d="M0 7385 l0 -6615 2734 0 c1917 0 2737 3 2741 11 5 6 -7 10 -32 8 -86
-4 -81 -10 -82 96 l-2 95 39 0 39 0 -4 -52 c-4 -49 -3 -52 11 -34 18 22 20 36
7 36 -5 0 -8 8 -6 18 2 9 4 20 4 25 1 4 9 8 19 9 9 1 -41 5 -113 8 -128 5
-130 5 -133 29 -3 19 -6 21 -13 10 -6 -10 -9 -10 -9 -1 0 9 -41 12 -172 12
-95 0 -168 -4 -163 -8 16 -12 39 -56 24 -47 -8 6 -10 4 -5 -4 5 -7 13 -10 20
-8 7 3 11 -5 10 -22 -2 -35 -14 -71 -25 -71 -5 0 -9 -13 -9 -30 0 -16 -4 -30
-10 -30 -5 0 -10 -4 -10 -10 0 -5 30 -11 68 -12 l67 -2 -57 -3 c-32 -2 -74 0
-93 6 -21 5 -33 6 -30 0 4 -5 1 -9 -4 -9 -6 0 -11 10 -11 23 0 15 -3 18 -8 9
-7 -10 -15 -10 -37 -2 -22 8 -26 13 -16 19 8 5 11 13 7 19 -3 5 0 9 7 9 6 0
31 3 55 7 41 8 42 10 42 47 0 50 -27 55 -33 7 -2 -19 -4 -7 -5 28 -2 54 1 62
20 72 18 8 -17 11 -145 11 -110 1 -166 -2 -162 -9 3 -6 1 -10 -4 -10 -6 0 -11
5 -11 10 0 7 -465 10 -1375 10 -830 0 -1375 4 -1375 9 0 14 62 226 110 376 59
186 116 346 162 454 29 68 38 102 34 123 -6 30 38 131 75 173 10 11 41 74 69
140 28 66 57 127 64 135 13 14 215 454 219 475 1 5 -20 12 -48 15 -27 3 -66
15 -86 27 -50 32 -135 123 -153 167 -39 94 -28 255 26 366 39 80 138 180 268
270 276 191 493 410 555 560 15 36 38 79 51 97 13 17 24 34 24 37 0 3 -19 15
-42 27 -24 12 -56 32 -73 44 -16 12 -57 32 -90 44 -106 39 -140 60 -168 103
-20 31 -27 55 -27 90 0 34 -7 57 -26 85 -24 35 -26 44 -20 107 6 66 5 72 -34
150 -52 105 -64 173 -51 281 14 119 40 157 123 183 60 19 92 26 267 53 90 14
112 33 171 144 84 158 200 289 304 342 172 87 311 83 494 -14 66 -36 101 -48
175 -59 50 -8 124 -22 163 -31 l71 -16 94 39 c88 36 101 39 189 38 108 0 159
-16 288 -90 84 -48 166 -89 195 -98 17 -6 18 -15 12 -139 l-8 -133 84 -42
c255 -127 555 -330 754 -511 252 -229 579 -553 671 -667 84 -105 124 -144 177
-170 l47 -25 6 31 c4 16 13 30 20 30 8 0 14 9 14 19 0 11 5 23 10 26 6 4 8 11
5 16 -3 5 0 6 8 3 9 -3 23 9 38 33 13 21 31 46 42 55 11 10 16 22 11 29 -4 7
-3 9 3 6 13 -8 46 27 36 37 -4 4 0 4 10 0 13 -5 20 1 28 25 6 17 15 28 20 25
5 -3 22 5 37 17 17 14 20 20 8 15 -16 -6 -17 -4 -6 9 7 9 19 14 26 11 8 -3 13
-1 11 5 -1 5 14 18 33 29 136 74 240 90 508 76 66 -4 129 -2 155 4 163 41 247
58 289 59 15 1 39 12 54 26 15 14 28 24 30 22 8 -8 3 -79 -9 -137 l-15 -65 -1
73 c-1 54 -4 72 -15 72 -8 0 -17 -7 -20 -16 -5 -13 -14 -15 -39 -10 -18 3 -26
2 -19 -2 13 -9 14 -74 1 -66 -4 2 -10 0 -14 -6 -4 -6 5 -10 19 -10 24 0 26 -4
26 -41 0 -36 -2 -40 -15 -29 -8 7 -14 19 -13 28 2 8 -5 16 -15 17 -10 2 -14
-1 -11 -7 5 -7 2 -8 -7 -2 -18 11 -39 14 -38 6 4 -25 -5 -32 -36 -32 -19 0
-35 -4 -35 -10 0 -5 -17 -10 -38 -10 -21 0 -42 -4 -48 -10 -5 -5 -22 -11 -37
-12 -15 -1 -27 -7 -27 -13 0 -5 -4 -4 -9 3 -6 10 -10 9 -14 -7 -5 -21 -37 -30
-37 -11 0 23 -30 8 -36 -17 -9 -45 -13 -53 -21 -51 -19 6 -63 -36 -63 -59 0
-13 4 -21 10 -18 6 3 10 -5 10 -19 0 -13 6 -26 13 -29 9 -3 8 -13 -5 -40 -10
-21 -13 -37 -8 -37 6 0 10 -16 10 -35 0 -21 -5 -35 -12 -35 -9 0 -9 -3 -3 -8
6 -4 10 -13 9 -19 -1 -7 -2 -22 -3 -34 -2 -31 -21 -12 -21 22 0 16 -4 29 -9
29 -10 0 -21 -97 -21 -181 0 -33 -3 -59 -7 -59 -5 0 -9 -16 -10 -36 -2 -44 -3
-45 -42 -46 -17 -1 -31 -6 -31 -12 0 -6 -4 -5 -9 3 -5 7 -14 10 -20 7 -10 -6
-18 46 -12 78 1 4 -16 6 -39 4 l-40 -4 0 43 0 43 -50 0 -50 0 0 -39 c0 -22 6
-42 13 -45 6 -3 -7 -2 -30 1 -27 3 -43 2 -43 -5 0 -6 6 -13 13 -15 9 -4 9 -6
0 -6 -6 -1 -19 9 -27 21 -9 12 -18 19 -21 16 -3 -3 76 -89 177 -191 l183 -186
40 5 c22 3 58 1 80 -4 38 -9 37 -10 -28 -10 -37 0 -70 -2 -73 -4 -2 -3 33 -40
78 -83 46 -44 88 -87 93 -96 10 -16 99 -114 284 -313 89 -96 288 -340 299
-366 6 -17 92 -142 162 -237 25 -34 58 -83 74 -110 16 -26 44 -70 61 -98 57
-87 263 -450 339 -598 89 -170 186 -387 215 -480 34 -111 29 -107 129 -108 48
0 95 -3 104 -7 16 -7 16 -10 2 -37 -8 -17 -28 -43 -43 -60 -16 -16 -31 -38
-34 -48 -7 -20 -29 -22 -58 -4 -29 17 -49 -13 -49 -75 l0 -48 60 0 c41 0 69 6
87 17 26 17 27 17 20 0 -6 -15 1 -17 56 -17 34 0 535 -1 1112 -2 578 0 1255 0
1506 0 l456 2 92 138 c265 396 362 537 369 540 5 1 72 -87 150 -195 262 -366
344 -478 352 -483 4 -3 110 -4 234 -2 l226 3 0 1193 0 1194 -67 6 c-38 4 -99
13 -138 21 -38 8 -100 15 -137 17 l-68 3 0 5253 0 5252 -1222 1 c-673 1 -1212
4 -1198 6 14 3 27 8 30 12 10 14 78 51 93 51 8 0 17 5 19 12 2 6 20 13 38 14
21 1 41 11 51 23 10 12 20 21 24 21 4 0 19 8 33 18 15 10 53 26 85 37 31 10
62 24 67 30 5 7 28 20 50 30 22 10 40 22 40 27 0 4 -2632 8 -5850 8 l-5850 0
0 -6615z m3813 6328 c-7 -2 -19 -2 -25 0 -7 3 -2 5 12 5 14 0 19 -2 13 -5z
m400 0 c-29 -2 -77 -2 -105 0 -29 2 -6 3 52 3 58 0 81 -1 53 -3z m390 0 c-35
-2 -91 -2 -125 0 -35 2 -7 3 62 3 69 0 97 -1 63 -3z m740 0 c-101 -2 -265 -2
-365 0 -101 1 -19 2 182 2 201 0 283 -1 183 -2z m1860 0 c-178 -2 -468 -2
-645 0 -178 1 -33 2 322 2 355 0 500 -1 323 -2z m540 0 c-13 -2 -33 -2 -45 0
-13 2 -3 4 22 4 25 0 35 -2 23 -4z m160 0 c-13 -2 -33 -2 -45 0 -13 2 -3 4 22
4 25 0 35 -2 23 -4z m-1706 -1211 c6 -4 15 -20 19 -36 6 -26 9 -28 45 -22 21
3 92 11 158 16 65 5 181 18 257 27 217 28 867 25 1094 -5 91 -12 185 -26 210
-32 104 -22 223 -40 350 -55 238 -26 501 -101 775 -220 17 -7 75 -30 130 -50
194 -72 248 -99 442 -218 61 -37 292 -246 355 -320 23 -28 74 -83 112 -121 38
-39 76 -82 85 -96 9 -14 34 -50 56 -80 94 -128 150 -235 165 -320 15 -81 25
-100 54 -100 40 0 56 -27 156 -261 68 -157 81 -209 59 -236 -11 -12 -14 -54
-14 -174 0 -176 -2 -182 -79 -221 -30 -15 -37 -24 -33 -41 50 -225 93 -480
107 -632 22 -241 8 -334 -70 -474 -60 -109 -85 -194 -75 -260 10 -68 34 -148
66 -219 16 -34 29 -65 29 -67 0 -2 21 -39 46 -82 48 -82 60 -97 190 -239 109
-119 120 -133 149 -196 36 -81 51 -170 36 -221 -21 -68 -116 -152 -236 -206
-27 -12 -58 -27 -67 -32 -10 -5 -30 -9 -44 -9 -18 0 -24 -4 -21 -13 4 -10 -2
-13 -20 -9 -22 4 -24 2 -18 -18 6 -19 4 -22 -9 -17 -9 4 -16 3 -16 -2 0 -5
-13 -25 -30 -45 -32 -41 -60 -124 -60 -180 l0 -36 95 0 95 0 0 -64 c0 -58 -2
-64 -22 -70 -13 -3 -39 -3 -59 0 l-37 6 5 -44 c5 -45 -15 -108 -53 -166 -13
-20 -18 -21 -31 -10 -14 11 -15 10 -9 -10 6 -18 4 -21 -11 -15 -16 6 -17 5 -3
-12 14 -16 13 -17 -8 -11 -13 5 -22 3 -22 -3 0 -6 6 -11 13 -12 14 -1 -83 -49
-100 -49 -23 0 -23 -19 2 -55 30 -45 45 -95 45 -151 0 -49 -17 -104 -33 -104
-8 0 -8 3 0 11 16 16 -21 50 -61 55 -17 3 -43 10 -58 15 -18 8 -32 7 -47 -1
-12 -6 -21 -8 -21 -5 0 2 -11 -5 -25 -17 -14 -12 -25 -31 -25 -42 0 -41 -12
-66 -31 -66 -11 0 -19 -5 -19 -11 0 -14 -25 -39 -39 -39 -6 0 -11 -7 -11 -15
0 -11 -13 -15 -55 -15 -53 0 -54 1 -63 33 -11 42 -3 116 15 144 14 21 13 23
-9 32 -13 5 -62 12 -109 15 -46 3 -113 9 -147 12 -56 5 -65 4 -78 -14 -19 -27
-53 -22 -87 12 -15 15 -27 29 -27 31 0 3 18 8 40 11 22 4 40 10 40 14 0 4 10
12 23 18 l22 11 -22 7 c-13 3 -23 10 -23 15 0 5 -23 9 -52 9 -28 0 -49 2 -46
5 5 5 80 13 131 15 14 0 17 9 17 55 l0 55 -55 0 c-39 0 -55 4 -55 13 0 22 128
147 150 147 17 0 20 7 20 40 l0 40 -55 0 -55 0 0 -40 c0 -29 -4 -40 -15 -40
-11 0 -15 11 -15 39 0 22 6 44 15 51 8 7 15 25 15 41 0 24 4 29 24 29 21 0 24
5 30 61 3 34 7 80 7 103 1 23 4 31 6 19 3 -15 12 -23 24 -23 16 0 19 7 19 40
0 22 4 40 9 40 5 0 11 18 15 39 3 22 10 41 16 43 6 2 11 23 13 48 1 25 8 50
16 56 12 9 12 12 -1 16 -13 6 -34 -1 -104 -34 -37 -17 -54 -61 -63 -168 -12
-150 -42 -178 -179 -167 -71 5 -121 36 -155 96 -26 43 -25 155 2 241 12 36 21
66 21 68 0 1 -22 2 -48 2 -77 0 -108 -50 -72 -117 37 -69 26 -157 -26 -210
-31 -32 -182 -40 -201 -10 -5 7 -10 -31 -13 -83 l-5 -95 -70 0 -70 0 -2 485
-3 485 60 62 c33 35 60 66 60 70 0 5 -44 36 -97 70 -63 40 -144 107 -227 185
-148 142 -190 178 -204 178 -5 0 -15 7 -22 15 -7 9 -19 14 -27 11 -8 -3 -11
-1 -8 4 3 5 -2 21 -11 35 -12 18 -22 24 -36 19 -11 -3 -30 -7 -41 -8 -12 -2
-46 -11 -75 -20 -37 -13 -74 -17 -119 -14 -56 4 -68 8 -91 34 -15 16 -32 39
-38 49 -6 12 -24 21 -43 23 -17 2 -31 8 -31 13 0 6 -4 7 -10 4 -5 -3 -10 -1
-10 5 0 7 7 10 15 6 9 -3 25 4 37 16 24 24 115 36 148 18 16 -9 20 -8 20 5 0
18 12 19 28 3 7 -7 12 -8 12 -4 0 5 9 -2 19 -15 11 -13 22 -21 26 -18 11 11
-95 97 -128 104 -17 4 -53 13 -80 22 -40 12 -56 13 -100 2 -65 -16 -75 -24
-48 -39 30 -15 17 -30 -27 -30 -39 0 -129 -28 -148 -45 -6 -6 -13 -39 -16 -73
-3 -49 -1 -62 9 -58 7 3 13 -1 13 -8 0 -15 35 -27 56 -19 7 2 16 14 19 24 5
16 10 18 21 9 11 -10 22 -4 56 24 23 20 47 36 54 36 7 0 14 6 17 13 2 6 8 8
13 4 5 -5 1 -13 -9 -18 -47 -27 -125 -124 -159 -199 -57 -126 -67 -183 -36
-213 17 -18 15 -90 -4 -114 -6 -7 -7 -28 -4 -47 4 -23 3 -35 -6 -38 -7 -3 5
-22 31 -49 67 -69 95 -131 94 -211 -2 -140 -66 -237 -179 -272 -18 -5 -27 4
-58 54 -21 34 -36 62 -35 64 2 1 23 10 46 20 51 22 76 67 71 128 -2 29 -9 44
-23 52 -11 6 -23 15 -27 21 -10 13 -73 -19 -130 -67 l-48 -40 26 -47 c15 -25
35 -62 45 -82 39 -78 129 -214 139 -211 6 1 9 -2 5 -8 -5 -9 147 -287 164
-300 18 -13 51 -94 43 -102 -5 -5 -42 -8 -82 -6 l-73 3 -85 145 c-159 273
-214 365 -238 393 -13 16 -24 35 -24 43 0 8 -3 14 -7 14 -5 0 -19 23 -33 51
-14 28 -28 53 -31 55 -3 2 -7 -130 -8 -294 l-2 -297 -64 -65 c-35 -35 -66 -62
-69 -60 -3 4 -18 930 -16 1032 0 28 -23 58 -45 58 -7 0 -15 5 -17 10 -2 6 -14
12 -27 15 -31 6 -95 67 -127 122 -21 34 -23 46 -14 63 6 11 8 25 5 30 -3 6 -2
10 3 10 5 0 14 -19 20 -43 18 -69 178 -226 213 -207 8 5 113 5 234 1 121 -4
222 -5 225 -3 3 2 -19 26 -48 52 -51 46 -54 50 -63 116 -6 46 -22 95 -48 147
-39 77 -42 105 -15 128 8 6 14 18 14 27 0 8 15 32 34 53 19 21 42 51 50 68 15
29 15 30 -13 50 -38 27 -76 26 -191 -5 -52 -15 -140 -34 -195 -44 -55 -9 -108
-20 -117 -25 -20 -8 -25 9 -7 21 14 8 68 22 134 34 28 4 68 13 90 19 22 6 59
11 83 11 24 0 53 5 65 12 13 7 65 13 127 13 100 1 108 3 167 36 l62 35 -30 18
c-29 17 -37 29 -54 86 -7 21 0 17 44 -24 48 -44 56 -48 89 -42 20 3 55 6 77 7
36 0 38 1 16 10 -22 9 -23 11 -9 25 13 13 20 14 38 4 29 -15 126 -41 175 -45
22 -2 75 -10 118 -16 97 -16 109 -8 73 50 -14 22 -39 47 -54 55 -16 8 -34 21
-41 30 -7 8 -18 13 -25 10 -14 -5 -46 20 -46 36 0 25 26 17 73 -23 28 -24 67
-49 85 -57 17 -7 32 -18 32 -26 0 -7 9 -15 19 -19 14 -4 21 -17 23 -43 l3 -37
87 -9 c84 -9 90 -8 139 17 28 15 79 31 114 37 102 16 185 61 185 100 0 9 7 23
15 30 8 7 15 9 15 6 0 -4 14 3 31 16 18 13 53 39 79 58 119 88 217 180 192
180 -6 0 -12 -6 -15 -13 -2 -7 -25 -23 -51 -36 -25 -13 -48 -32 -51 -42 -3 -9
-12 -23 -20 -29 -12 -10 -15 -9 -15 10 0 12 12 31 26 43 87 72 132 133 148
198 4 19 1 29 -9 33 -9 3 -12 12 -9 21 9 24 62 73 81 77 10 2 19 12 21 23 2
11 11 28 20 38 9 10 11 17 4 17 -7 0 -12 -4 -12 -9 0 -13 -63 -51 -84 -51 -9
0 -26 -9 -38 -20 -17 -16 -24 -17 -36 -8 -12 11 -9 18 24 45 28 25 40 30 46
21 6 -9 10 -7 14 9 5 19 28 29 79 34 6 1 18 5 28 11 17 8 18 7 12 -14 -3 -13
-3 -18 2 -12 4 7 17 14 28 16 12 2 19 11 19 21 -1 12 4 17 15 15 26 -6 41 14
22 29 -15 12 -15 13 1 7 11 -4 22 2 30 15 7 12 18 21 25 21 7 0 13 4 13 9 0 5
8 12 18 15 9 3 6 4 -8 2 -29 -5 -165 -54 -265 -96 -38 -16 -135 -55 -215 -85
-80 -31 -217 -85 -305 -120 -152 -60 -269 -104 -660 -245 -93 -34 -359 -126
-590 -205 -676 -230 -647 -219 -672 -259 -63 -98 -315 -253 -855 -526 -136
-69 -248 -128 -248 -131 0 -3 19 -13 42 -22 61 -24 148 -79 148 -94 0 -12 -26
-42 -66 -76 -21 -18 -23 -17 -70 13 -66 42 -133 60 -221 60 -69 0 -80 -3 -181
-54 -118 -59 -161 -96 -198 -169 -73 -142 -69 -289 12 -422 l36 -60 -47 -42
c-26 -24 -50 -43 -54 -43 -16 0 -93 146 -111 212 -24 86 -26 197 -6 283 8 33
13 61 11 63 -5 5 -370 -165 -393 -184 -2 -1 4 -14 13 -28 16 -24 14 -46 -4
-46 -5 0 -39 -17 -77 -38 -38 -21 -85 -44 -104 -52 -19 -7 -84 -38 -145 -67
-119 -58 -548 -243 -564 -243 -5 0 -11 -15 -13 -32 l-3 -33 -81 -1 c-63 -2
-103 -10 -188 -38 -202 -69 -552 -100 -681 -62 -77 23 -85 30 -85 76 0 48 5
52 230 186 96 57 209 126 250 154 41 27 104 67 140 90 203 129 266 173 272
190 4 10 7 78 7 150 0 129 0 132 25 154 14 12 26 25 26 29 0 3 -91 8 -202 9
l-203 3 0 60 0 60 423 3 422 2 0 -65 0 -65 -175 0 -175 0 0 -126 c0 -97 3
-124 13 -118 46 29 256 163 377 242 320 209 330 216 323 232 -3 8 -9 40 -13
70 -4 30 -16 80 -28 110 -22 56 -57 198 -87 350 -9 47 -27 101 -40 121 -62 96
-145 297 -145 353 0 11 -11 48 -25 81 -13 33 -25 77 -25 97 0 21 -11 75 -24
120 -49 172 -58 441 -21 633 7 38 16 125 20 192 6 140 14 185 60 377 34 139
89 267 191 446 137 241 407 520 686 710 171 116 327 223 383 263 113 81 229
148 460 267 38 20 49 30 47 45 -9 50 -1 80 28 110 30 31 185 119 238 135 35
11 124 12 139 2z m2726 -3205 c-12 -12 -28 -39 -37 -59 l-15 -38 27 0 26 0
-22 -16 c-59 -41 -54 51 7 118 13 15 27 26 29 23 3 -3 -4 -15 -15 -28z m37
-164 c0 -7 -9 -13 -20 -13 -23 0 -24 4 -9 32 9 17 13 18 20 7 5 -8 9 -20 9
-26z m-110 -130 c0 -5 -14 -28 -31 -53 -27 -40 -30 -42 -23 -15 8 35 33 75 45
75 5 0 9 -3 9 -7z m-1309 -190 c13 -15 12 -15 -8 -4 -24 12 -29 21 -14 21 5 0
15 -7 22 -17z m269 -273 c0 -5 -5 -10 -11 -10 -5 0 -7 5 -4 10 3 6 8 10 11 10
2 0 4 -4 4 -10z m443 -237 c-8 -52 -13 -54 -13 -5 0 23 4 42 9 42 6 0 7 -17 4
-37z m-548 -173 c3 -6 -1 -7 -9 -4 -18 7 -21 14 -7 14 6 0 13 -4 16 -10z m828
-115 c-1 -12 2 -14 9 -7 8 8 14 7 23 -1 31 -32 38 -64 36 -157 -2 -90 -4 -96
-32 -124 -16 -15 -29 -32 -29 -37 0 -5 -7 -9 -15 -9 -8 0 -15 -4 -15 -9 0 -4
-20 -14 -44 -21 -43 -12 -44 -13 -35 -43 5 -18 9 -35 9 -38 0 -16 -62 -68 -88
-74 -17 -3 -33 -13 -36 -21 -3 -8 -17 -19 -30 -24 -15 -5 -28 -20 -32 -35 -3
-14 -10 -25 -15 -25 -5 0 -18 -9 -29 -20 -33 -33 -90 -21 -90 18 0 7 15 37 34
65 44 66 57 101 55 146 -1 20 6 50 15 66 9 17 16 42 16 57 0 15 4 29 9 32 5 4
12 24 16 46 4 22 11 40 16 40 5 0 9 6 9 13 0 13 53 67 66 67 12 0 35 30 29 40
-4 6 5 10 20 10 27 0 105 46 105 62 0 5 6 8 13 5 6 -2 11 -12 10 -22z m-6481
-95 c57 -21 158 -101 158 -123 -1 -7 -26 -29 -56 -51 l-56 -38 -31 34 c-49 53
-91 71 -169 70 -144 -1 -226 -86 -203 -209 12 -67 66 -106 212 -153 155 -51
193 -69 243 -121 126 -130 78 -379 -89 -464 -166 -83 -414 -35 -518 102 l-27
35 29 24 c16 13 44 31 63 41 l33 18 42 -47 c62 -71 149 -99 242 -78 104 23
161 92 153 186 -7 86 -54 122 -228 179 -109 35 -193 79 -229 121 -38 43 -71
133 -71 194 0 61 33 151 70 194 33 37 113 83 179 102 63 18 182 11 253 -16z
m10151 15 c31 -8 74 -26 95 -39 37 -23 102 -90 102 -104 -1 -7 -105 -82 -115
-82 -3 0 -19 15 -35 34 -43 48 -87 66 -162 65 -99 -1 -155 -29 -188 -95 -40
-78 -18 -156 57 -204 26 -17 93 -45 148 -62 164 -50 239 -99 281 -181 22 -42
30 -152 15 -213 -23 -92 -113 -186 -204 -214 -153 -46 -345 -4 -438 97 -66 72
-67 66 7 114 58 37 67 41 75 26 23 -40 62 -76 105 -96 85 -40 211 -26 271 31
34 32 57 100 48 145 -14 78 -50 104 -227 164 -224 76 -288 142 -296 302 -5 96
14 152 72 215 89 97 242 135 389 97z m-6289 -215 c21 -27 52 -82 69 -122 26
-63 31 -88 35 -185 5 -129 -4 -176 -54 -281 -113 -235 -411 -368 -656 -292
-61 19 -156 71 -214 118 l-28 23 44 44 c24 25 48 45 52 45 4 0 31 -16 58 -36
66 -47 157 -76 242 -76 286 0 495 282 408 552 -12 38 -38 91 -56 117 -19 27
-34 52 -34 58 0 13 72 85 85 85 6 0 28 -22 49 -50z m1071 -70 c3 -6 -1 -7 -9
-4 -18 7 -21 14 -7 14 6 0 13 -4 16 -10z m55 -15 c0 -8 -7 -15 -15 -15 -13 0
-14 3 -3 15 16 18 18 18 18 0z m630 -359 c0 -9 -30 -14 -35 -6 -4 6 3 10 14
10 12 0 21 -2 21 -4z m1974 -193 c-7 -39 -11 -49 -18 -42 -7 8 7 79 16 79 5 0
6 -16 2 -37z m-1724 -13 c0 -5 -5 -10 -11 -10 -5 0 -7 5 -4 10 3 6 8 10 11 10
2 0 4 -4 4 -10z m118 -48 c6 -9 12 -25 12 -37 0 -11 14 -31 32 -45 17 -14 41
-35 53 -47 25 -26 40 -29 51 -11 5 8 2 9 -9 5 -14 -5 -17 0 -17 23 0 16 -4 32
-10 35 -5 3 -10 17 -10 31 0 31 31 33 60 4 12 -12 26 -20 33 -19 26 3 37 -2
37 -16 0 -8 5 -15 10 -15 6 0 10 8 10 17 0 14 5 13 25 -9 13 -15 38 -35 55
-44 30 -18 39 -34 19 -34 -6 0 -9 -6 -6 -12 2 -7 10 -12 16 -10 6 1 11 -2 11
-8 0 -12 -45 -24 -70 -17 -25 6 -32 -14 -17 -54 9 -25 9 -33 0 -36 -7 -3 -13
-11 -13 -18 0 -7 -8 -31 -18 -54 -14 -31 -21 -38 -30 -29 -9 9 -12 9 -12 -2 0
-14 88 -100 103 -100 4 0 7 -5 7 -10 0 -16 30 -43 75 -70 63 -37 136 -92 131
-98 -3 -3 -14 2 -23 10 -10 9 -55 35 -99 58 -101 52 -175 112 -213 172 -17 26
-60 103 -96 172 -43 81 -83 141 -112 170 -26 26 -42 49 -38 56 4 7 -3 25 -15
42 l-21 29 38 -7 c21 -3 44 -13 51 -22z m1562 -69 c0 -21 -3 -24 -9 -14 -5 8
-7 20 -4 28 8 21 13 15 13 -14z m-2250 -178 l25 -14 -32 -1 c-31 0 -49 11 -36
24 9 8 14 7 43 -9z m65 -25 c13 -6 15 -9 5 -9 -8 0 -22 4 -30 9 -18 12 -2 12
25 0z m86 -56 c7 -9 22 -20 34 -24 20 -9 20 -9 -1 -9 -11 -1 -31 10 -44 24
-13 14 -19 25 -13 25 6 0 17 -7 24 -16z m863 -61 c5 -16 3 -23 -7 -23 -17 0
-43 73 -31 91 8 13 20 -9 38 -68z m1161 -73 c-3 -5 -14 -10 -23 -9 -14 0 -13
2 3 9 27 11 27 11 20 0z m-871 -275 c11 -8 18 -17 15 -19 -2 -2 -20 10 -39 26
-34 29 -15 24 24 -7z m786 4 c0 -5 18 -9 40 -9 28 0 40 -4 40 -14 0 -24 -39
-29 -84 -11 -22 9 -51 21 -63 26 -37 14 -26 24 22 21 25 -2 45 -8 45 -13z
m742 -292 c-5 -7 -13 -23 -16 -37 -5 -17 -4 -21 2 -11 7 10 11 10 17 1 4 -7 1
-17 -6 -22 -11 -8 -10 -9 3 -5 9 3 18 2 20 -3 2 -5 10 -10 18 -12 19 -4 42
-47 33 -62 -3 -6 -3 -8 2 -4 7 7 27 -23 53 -77 13 -28 0 -154 -17 -165 -8 -4
-10 -13 -7 -19 12 -19 -2 -45 -31 -58 -38 -17 -180 -14 -194 3 -6 8 -23 14
-37 14 -14 0 -49 14 -79 30 -29 17 -60 30 -68 30 -19 0 -19 2 1 44 16 33 16
35 -4 61 -11 14 -19 32 -16 39 3 7 -4 21 -16 31 -21 19 -27 45 -10 45 6 0 10
-4 10 -10 0 -11 40 -13 65 -4 13 6 14 9 3 16 -10 7 -10 11 0 15 6 2 12 18 12
34 0 22 5 29 20 29 11 0 20 5 20 10 0 6 9 10 20 10 11 0 20 7 20 15 0 8 18 24
41 35 38 20 42 20 59 5 15 -14 21 -14 39 -3 12 7 24 21 27 31 3 9 10 15 15 11
6 -3 6 -10 1 -17z m42 -62 c3 -8 1 -15 -4 -15 -6 0 -10 7 -10 15 0 8 2 15 4
15 2 0 6 -7 10 -15z m-1842 -1129 c66 -20 88 -34 88 -54 0 -10 6 -24 13 -31
10 -10 9 -11 -5 -6 -13 5 -18 2 -19 -11 -1 -17 -2 -17 -6 -1 -5 18 -53 25 -53
8 0 -17 -40 -3 -61 21 -11 14 -17 16 -13 7 3 -11 -2 -18 -14 -21 -18 -5 -19
-2 -12 23 5 16 6 29 4 29 -3 0 -2 5 2 11 5 8 9 8 14 -1 5 -8 9 -7 13 4 5 12
-1 16 -26 17 -30 1 -31 1 -7 9 14 4 27 8 30 9 3 0 26 -6 52 -13z m-135 -228
c-3 -8 -6 -5 -6 6 -1 11 2 17 5 13 3 -3 4 -12 1 -19z m0 -55 c-3 -10 -5 -4 -5
12 0 17 2 24 5 18 2 -7 2 -21 0 -30z m-917 -643 c0 -5 -2 -10 -4 -10 -3 0 -8
5 -11 10 -3 6 -1 10 4 10 6 0 11 -4 11 -10z m27 -52 c-3 -7 -5 -2 -5 12 0 14
2 19 5 13 2 -7 2 -19 0 -25z m23 -18 c0 -5 -5 -10 -11 -10 -5 0 -7 5 -4 10 3
6 8 10 11 10 2 0 4 -4 4 -10z m6236 -2715 c-21 -16 -32 -13 -21 4 3 6 14 11
23 11 15 -1 15 -2 -2 -15z m182 -1 c32 -9 27 -33 -10 -49 -38 -15 -48 -12 -48
16 0 10 -6 19 -14 19 -8 0 -18 5 -21 10 -7 11 56 14 93 4z m-2883 -54 c3 -5
-3 -10 -14 -10 -24 0 -60 -42 -86 -100 -11 -25 -28 -54 -37 -64 -10 -11 -18
-23 -18 -28 0 -4 -5 -8 -11 -8 -15 0 -2 37 31 90 16 25 32 59 36 75 4 17 11
36 17 43 11 14 73 16 82 2z m-1302 -12 c-24 -5 -43 -15 -43 -21 0 -7 -13 -18
-30 -24 -25 -9 -30 -9 -30 3 0 9 -4 12 -10 9 -5 -3 -10 0 -10 7 0 29 24 38 95
37 68 -1 69 -1 28 -11z m-4813 -73 c0 -81 0 -81 -62 -76 -18 1 -28 -3 -28 -11
0 -9 -3 -9 -10 2 -8 12 -10 10 -10 -8 0 -13 4 -20 10 -17 6 3 10 -3 10 -14 0
-12 -6 -21 -12 -22 -7 0 -4 -4 7 -9 15 -7 10 -9 -23 -9 -29 -1 -44 4 -48 14
-4 9 -19 15 -40 15 -28 0 -34 4 -34 21 0 19 5 21 40 17 30 -3 39 0 36 9 -3 7
1 13 9 13 11 0 15 11 15 40 0 38 2 40 30 40 26 0 30 4 31 28 1 15 1 30 0 35 0
4 17 7 39 7 l40 0 0 -75z m333 28 c-3 -7 2 -13 11 -13 25 0 58 -39 54 -63 -3
-20 -10 -22 -73 -25 -44 -1 -65 1 -56 7 11 7 10 11 -5 20 -12 6 -14 11 -5 11
10 0 11 3 2 14 -7 8 -14 23 -16 34 -3 16 0 19 12 15 11 -4 14 -2 9 5 -5 8 5
11 32 9 27 -1 38 -6 35 -14z m4325 -82 c3 -8 -1 -12 -9 -9 -7 2 -15 10 -17 17
-3 8 1 12 9 9 7 -2 15 -10 17 -17z m-4411 -7 c-3 -3 -12 -4 -19 -1 -8 3 -5 6
6 6 11 1 17 -2 13 -5z m-117 -34 c0 -11 0 -23 0 -27 0 -5 -5 -8 -11 -8 -7 0
-13 12 -15 28 -2 18 2 27 12 27 8 0 14 -9 14 -20z m4545 6 c17 -12 16 -14 -18
-18 -46 -5 -52 25 -6 31 3 1 14 -5 24 -13z m-4372 -73 c-13 -2 -35 -2 -50 0
-16 2 -5 4 22 4 28 0 40 -2 28 -4z"/>
<path d="M8140 8551 c0 -7 7 -14 15 -17 8 -4 12 -10 9 -15 -3 -5 0 -9 7 -9 7
0 1 -10 -12 -21 l-24 -21 24 7 c16 5 21 4 17 -4 -5 -7 2 -11 18 -11 15 0 31 8
38 19 7 11 18 17 27 13 13 -4 13 -2 -2 15 -9 11 -34 25 -55 32 -20 7 -43 15
-49 17 -7 3 -13 1 -13 -5z"/>
<path d="M7650 8407 c-14 -6 -26 -12 -28 -13 -1 0 0 -8 4 -17 5 -13 8 -13 25
4 11 11 24 17 29 14 6 -3 7 1 4 9 -3 9 -7 16 -8 15 0 0 -12 -5 -26 -12z"/>
<path d="M7441 8254 c0 -11 3 -14 6 -6 3 7 2 16 -1 19 -3 4 -6 -2 -5 -13z"/>
<path d="M8938 7719 c-3 -206 0 -246 18 -217 5 8 25 24 46 36 20 12 39 29 42
38 3 8 -5 43 -18 77 -37 96 -39 119 -10 173 28 52 29 49 -38 84 l-37 20 -3
-211z"/>
<path d="M5520 7878 c-23 -10 -20 -12 40 -28 36 -9 90 -29 120 -43 38 -18 58
-23 65 -16 14 15 -36 53 -103 78 -59 23 -85 25 -122 9z"/>
<path d="M3190 7861 c0 -17 13 -19 152 -23 84 -3 253 -3 375 0 208 5 223 6
223 24 0 17 -17 18 -375 18 -359 0 -375 -1 -375 -19z"/>
<path d="M7185 7872 l-40 -8 50 -11 c28 -6 97 -14 155 -17 150 -7 191 -19 248
-74 66 -65 90 -67 53 -6 -26 43 -75 78 -136 99 -55 18 -261 29 -330 17z"/>
<path d="M7110 7713 c1 -76 1 -279 1 -452 -1 -172 0 -315 2 -317 2 -2 12 5 21
15 21 23 22 47 18 451 -2 170 -8 290 -14 297 -13 16 -2 33 22 33 32 0 32 30 0
60 -16 15 -30 33 -30 39 0 6 -5 11 -11 11 -7 0 -10 -45 -9 -137z"/>
<path d="M8858 7809 c-17 -9 -18 -42 -18 -459 0 -443 0 -450 20 -450 19 0 20
7 20 93 0 54 -5 98 -11 104 -11 11 -8 73 6 138 4 19 1 41 -8 58 -13 25 -13 34
-1 71 11 32 14 90 12 248 -3 193 -4 206 -20 197z"/>
<path d="M7360 7782 c0 -5 14 -22 31 -36 30 -26 69 -32 117 -20 30 9 28 21 -9
40 -38 19 -139 31 -139 16z"/>
<path d="M3563 7728 c-21 -22 -23 -34 -23 -136 0 -62 4 -112 8 -112 5 0 16 6
25 13 15 11 17 28 15 135 l-3 124 -22 -24z"/>
<path d="M9483 7693 c9 -2 23 -2 30 0 6 3 -1 5 -18 5 -16 0 -22 -2 -12 -5z"/>
<path d="M7320 7671 c0 -5 5 -13 10 -16 6 -3 10 -2 10 4 0 5 -4 13 -10 16 -5
3 -10 2 -10 -4z"/>
<path d="M7650 7646 c0 -63 -28 -133 -66 -165 -34 -28 -39 -51 -10 -51 19 0
85 75 102 116 8 18 14 55 14 82 0 41 -3 48 -20 49 -16 1 -20 -4 -20 -31z"/>
<path d="M9420 7671 c0 -6 5 -13 10 -16 6 -3 10 -2 10 4 0 5 17 12 38 14 34 3
33 4 -10 5 -27 1 -48 -2 -48 -7z"/>
<path d="M9526 7654 c-4 -14 -5 -28 -3 -31 3 -2 8 8 11 23 4 14 5 28 3 31 -3
2 -8 -8 -11 -23z"/>
<path d="M7226 7638 c9 -17 20 -26 26 -22 7 5 9 2 5 -8 -3 -10 5 -26 24 -42
31 -28 40 -24 12 6 -9 10 -18 29 -20 40 -4 27 -28 55 -47 55 -13 0 -13 -4 0
-29z"/>
<path d="M5013 7625 c-60 -42 -86 -270 -44 -392 23 -67 58 -133 71 -133 20 0
17 21 -15 101 -31 75 -35 94 -35 179 1 90 14 151 54 243 10 21 -3 22 -31 2z"/>
<path d="M7330 7481 c0 -11 4 -22 9 -25 5 -3 11 -17 13 -30 3 -13 72 -137 154
-275 123 -207 153 -250 172 -251 27 0 27 2 -2 48 -31 50 -196 328 -220 372
-42 77 -86 140 -98 138 -7 -2 -12 5 -10 14 1 9 -2 19 -8 23 -5 3 -10 -3 -10
-14z"/>
<path d="M9848 7293 c7 -3 16 -2 19 1 4 3 -2 6 -13 5 -11 0 -14 -3 -6 -6z"/>
<path d="M9800 7210 c0 -5 5 -10 10 -10 6 0 10 5 10 10 0 6 -4 10 -10 10 -5 0
-10 -4 -10 -10z"/>
<path d="M10560 6920 c0 -30 122 -37 128 -7 3 14 -6 17 -62 17 -36 0 -66 -4
-66 -10z"/>
<path d="M9680 6545 c0 -30 14 -32 32 -6 7 10 22 21 33 24 11 2 1 5 -22 6 -39
1 -43 -1 -43 -24z"/>
<path d="M1780 7883 c-76 -26 -126 -67 -155 -128 -24 -48 -27 -64 -24 -133 3
-65 9 -85 32 -120 37 -56 80 -82 233 -137 155 -56 171 -65 211 -105 36 -37 58
-112 48 -162 -41 -195 -305 -253 -465 -102 -34 32 -35 32 -57 14 l-23 -18 32
-31 c18 -18 57 -44 88 -59 50 -25 65 -27 170 -27 106 0 119 2 166 27 88 46
134 116 142 214 6 76 -10 125 -56 176 -44 49 -87 71 -221 114 -126 40 -174 66
-215 117 -25 31 -31 49 -34 101 -7 112 47 189 154 222 97 29 186 14 260 -42
46 -36 47 -36 66 -16 19 19 19 19 -19 49 -21 17 -60 38 -86 47 -61 20 -187 20
-247 -1z"/>
<path d="M11975 7884 c-77 -25 -126 -62 -157 -123 -57 -109 -27 -256 66 -320
23 -16 102 -50 175 -76 73 -25 150 -57 170 -71 54 -35 81 -89 81 -160 0 -144
-109 -232 -273 -222 -83 5 -135 27 -184 76 -32 32 -37 33 -60 21 l-25 -13 45
-42 c91 -86 287 -111 402 -51 105 54 145 118 145 232 0 147 -54 198 -279 272
-58 18 -125 45 -148 59 -110 64 -135 214 -51 310 90 102 279 114 383 23 28
-25 34 -27 51 -15 18 14 18 15 -5 40 -13 14 -44 35 -69 47 -59 29 -196 36
-267 13z"/>
<path d="M5845 7691 c-3 -5 11 -40 31 -77 91 -164 83 -337 -21 -494 -89 -133
-209 -200 -377 -208 -109 -5 -187 15 -271 68 -38 24 -48 26 -57 15 -9 -11 -3
-19 32 -41 109 -69 271 -100 388 -75 200 43 370 225 401 428 18 123 -15 270
-81 364 -22 30 -35 36 -45 20z"/>
<path d="M8228 6785 c2 -14 6 -25 8 -25 2 0 4 11 4 25 0 14 -4 25 -9 25 -4 0
-6 -11 -3 -25z"/>
<path d="M8255 6725 c4 -11 10 -32 13 -47 2 -15 8 -25 13 -22 12 7 0 56 -19
74 -13 13 -14 13 -7 -5z"/>
<path d="M5140 930 c0 -5 9 -10 20 -10 11 0 20 5 20 10 0 6 -9 10 -20 10 -11
0 -20 -4 -20 -10z"/>
<path d="M11920 13960 l0 -40 -40 0 c-40 0 -40 0 -40 -37 l0 -38 120 -1 120
-2 0 39 c0 39 0 39 -40 39 l-40 0 0 40 0 40 -40 0 -40 0 0 -40z"/>
<path d="M12265 13970 c-4 -16 -4 -34 0 -40 3 -5 -1 -10 -9 -10 -12 0 -16 -10
-16 -40 l0 -40 -60 0 -60 0 0 -31 c0 -42 -40 -79 -85 -79 -18 0 -35 4 -37 9
-1 5 -37 11 -78 14 -41 2 -58 2 -37 0 24 -3 37 -9 37 -19 0 -12 53 -14 360
-14 353 0 360 0 360 20 0 14 -7 20 -24 20 -21 0 -23 4 -20 39 2 27 -1 41 -11
45 -11 4 -15 24 -15 81 0 56 -3 75 -13 75 -8 0 -19 -12 -26 -26 -13 -29 -31
-28 -46 4 -9 21 -17 22 -112 22 l-101 0 -7 -30z m295 -90 c0 -29 -4 -40 -15
-40 -11 0 -15 11 -15 40 0 29 4 40 15 40 11 0 15 -11 15 -40z m-413 -126 c-3
-3 -12 -4 -19 -1 -8 3 -5 6 6 6 11 1 17 -2 13 -5z"/>
<path d="M11740 13931 c0 -5 -12 -11 -27 -13 -28 -3 -28 -3 -31 -90 l-3 -88
40 0 41 0 0 100 c0 60 -4 100 -10 100 -5 0 -10 -4 -10 -9z"/>
<path d="M12860 13810 c0 -5 -7 -10 -16 -10 -17 0 -44 -23 -44 -39 0 -5 -10
-17 -22 -25 -21 -15 -19 -16 45 -16 52 0 67 3 67 14 0 8 -4 18 -10 21 -5 3
-10 12 -10 18 0 7 4 6 10 -3 11 -17 13 -6 4 28 -6 22 -24 31 -24 12z m-27 -77
c-7 -2 -19 -2 -25 0 -7 3 -2 5 12 5 14 0 19 -2 13 -5z"/>
<path d="M11538 13753 c12 -2 32 -2 45 0 12 2 2 4 -23 4 -25 0 -35 -2 -22 -4z"/>
<path d="M11508 13732 c-9 -4 45 -8 120 -10 75 -2 134 -1 132 1 -9 8 -235 16
-252 9z"/>
<path d="M13696 10985 c3 -20 0 -25 -16 -25 -19 0 -20 -4 -14 -117 4 -65 8
-120 10 -122 2 -2 4 32 4 77 l0 82 34 0 c34 0 35 -1 39 -42 2 -26 4 -12 5 35
2 74 1 79 -28 107 -37 36 -40 37 -34 5z"/>
<path d="M13860 10989 c0 -5 5 -7 10 -4 6 3 10 8 10 11 0 2 -4 4 -10 4 -5 0
-10 -5 -10 -11z"/>
<path d="M13644 10760 c0 -69 1 -97 3 -62 2 34 2 90 0 125 -2 34 -3 6 -3 -63z"/>
<path d="M13947 10834 c-14 -15 -6 -34 14 -34 14 0 19 5 17 17 -3 18 -20 27
-31 17z"/>
<path d="M13613 10760 c0 -25 2 -35 4 -22 2 12 2 32 0 45 -2 12 -4 2 -4 -23z"/>
<path d="M13970 10680 c0 -29 4 -40 15 -40 11 0 15 11 15 40 0 29 -4 40 -15
40 -11 0 -15 -11 -15 -40z"/>
<path d="M13968 9999 c-10 -10 -13 -19 -8 -19 6 0 10 -13 10 -30 0 -20 5 -30
15 -30 11 0 15 12 15 50 0 54 -5 59 -32 29z"/>
<path d="M13907 9833 c-11 -10 -8 -73 3 -73 6 0 10 18 10 40 0 41 -2 45 -13
33z"/>
<path d="M7760 4570 c0 -5 5 -10 11 -10 5 0 7 5 4 10 -3 6 -8 10 -11 10 -2 0
-4 -4 -4 -10z"/>
<path d="M7233 3963 c-23 -9 -14 -20 17 -20 24 0 27 3 19 14 -12 14 -16 15
-36 6z"/>
<path d="M12885 890 c-91 -138 -165 -257 -165 -264 0 -7 30 -40 66 -72 36 -33
67 -60 68 -61 7 -7 373 -74 386 -70 23 6 198 149 199 162 1 6 -32 58 -71 116
-40 58 -125 180 -188 271 -63 92 -118 167 -122 168 -5 0 -82 -113 -173 -250z
m357 -36 c92 -131 164 -240 159 -242 -8 -3 -431 125 -438 132 -8 7 93 356 101
353 6 -2 85 -111 178 -243z m-248 75 c-19 -74 -39 -145 -43 -159 -5 -19 -28
-35 -91 -67 -47 -23 -90 -42 -97 -42 -6 -1 50 91 124 204 75 113 138 204 140
202 2 -2 -13 -64 -33 -138z m86 -344 c65 -71 117 -131 116 -132 -2 -2 -103 37
-226 85 -153 61 -219 92 -209 98 48 30 167 83 182 81 10 -1 72 -60 137 -132z
m228 35 c57 -18 102 -36 100 -41 -4 -11 -159 -139 -169 -139 -3 0 -34 30 -67
68 -34 37 -88 96 -121 132 -33 36 -61 68 -61 71 0 4 48 -8 108 -27 59 -18 153
-47 210 -64z m-360 -89 c84 -34 158 -61 164 -61 6 0 9 -3 5 -6 -3 -4 -63 4
-132 17 l-125 24 -48 49 c-26 27 -40 46 -32 43 8 -3 84 -33 168 -66z"/>
<path d="M5250 1025 c0 -12 16 -15 88 -14 48 0 110 4 137 9 37 6 18 8 -78 6
-70 0 -127 2 -127 7 0 4 -4 7 -10 7 -5 0 -10 -7 -10 -15z"/>
<path d="M8413 1028 c-4 -7 -6 -21 -5 -30 2 -9 -6 -22 -17 -28 -14 -7 -21 -21
-21 -39 0 -49 -12 -91 -26 -91 -14 0 -29 36 -25 63 3 25 -26 21 -44 -7 -13
-20 -14 -32 -6 -61 5 -20 7 -43 4 -51 -4 -12 18 -14 138 -13 116 1 137 3 107
11 -31 8 -38 15 -38 34 0 19 5 24 25 24 30 0 33 16 5 25 -12 4 -19 14 -18 23
2 10 -6 18 -22 22 -23 5 -25 11 -28 68 -3 60 -12 76 -29 50z"/>
<path d="M9020 937 c0 -13 11 -34 25 -47 17 -16 25 -34 25 -56 0 -18 5 -36 10
-39 6 -4 8 -11 5 -16 -4 -5 8 -9 25 -9 27 0 31 3 25 18 -4 9 -9 33 -13 52 -3
23 -20 50 -48 78 -23 23 -45 42 -48 42 -3 0 -6 -10 -6 -23z"/>
<path d="M9169 929 c-16 -12 -19 -19 -9 -19 25 0 60 12 60 20 0 17 -28 17 -51
-1z"/>
<path d="M1536 518 c-10 -51 -20 -105 -23 -120 -4 -21 -2 -28 10 -28 18 0 23
12 32 74 4 26 12 45 17 44 6 -2 20 -27 32 -55 12 -29 25 -55 29 -59 4 -4 21
24 39 62 35 75 35 76 52 -28 7 -38 37 -55 35 -20 -1 43 -35 203 -43 203 -5 0
-23 -31 -40 -70 -17 -39 -35 -69 -39 -68 -5 1 -22 34 -39 72 -16 39 -33 73
-37 78 -4 4 -15 -35 -25 -85z"/>
<path d="M539 596 c-2 -2 -3 -54 -1 -115 3 -88 6 -111 18 -111 10 0 14 12 14
45 0 43 1 45 39 55 41 11 51 24 51 70 0 36 -32 60 -81 60 -19 0 -38 -2 -40 -4z
m79 -35 c8 -4 12 -19 10 -32 -2 -18 -10 -25 -30 -27 -26 -3 -28 -1 -28 32 0
37 17 47 48 27z"/>
<path d="M1020 485 c0 -96 3 -115 15 -115 11 0 15 12 15 48 l1 47 22 -25 c12
-14 29 -36 37 -49 9 -14 23 -22 33 -20 16 4 14 10 -14 48 -28 38 -31 45 -17
55 27 20 39 53 28 80 -11 31 -39 46 -84 46 l-36 0 0 -115z m78 76 c8 -4 12
-19 10 -32 -2 -18 -10 -25 -30 -27 -26 -3 -28 -1 -28 32 0 37 17 47 48 27z"/>
<path d="M2130 485 l0 -115 45 0 c24 0 55 5 69 12 78 35 82 164 7 202 -16 9
-50 16 -76 16 l-45 0 0 -115z m114 64 c20 -16 26 -29 26 -59 0 -49 -25 -79
-72 -87 l-38 -6 0 87 0 86 29 0 c15 0 40 -9 55 -21z"/>
</g>
</svg>
