<?xml version="1.0" encoding="UTF-8" standalone="no"?>
<!DOCTYPE svg PUBLIC "-//W3C//DTD SVG 1.1//EN"
 "http://www.w3.org/Graphics/SVG/1.1/DTD/svg11.dtd">
<!-- Generated by graphviz version 8.1.0 (20230707.0739)
 -->
<!-- Title: G Pages: 1 -->
<svg width="470pt" height="329pt"
 viewBox="0.00 0.00 470.21 329.00" xmlns="http://www.w3.org/2000/svg" xmlns:xlink="http://www.w3.org/1999/xlink">
<g id="graph0" class="graph" transform="scale(1 1) rotate(0) translate(4 325)">
<title>G</title>
<polygon fill="white" stroke="none" points="-4,4 -4,-325 466.21,-325 466.21,4 -4,4"/>
<g id="clust1" class="cluster">
<title>cluster_0</title>
<text text-anchor="middle" x="36.76" y="-289.7" font-family="Times New Roman,serif" font-size="14.00">input layer</text>
</g>
<g id="clust2" class="cluster">
<title>cluster_1</title>
<text text-anchor="middle" x="170.2" y="-295.7" font-family="Times New Roman,serif" font-size="14.00">hidden layer</text>
</g>
<g id="clust3" class="cluster">
<title>cluster_2</title>
<text text-anchor="middle" x="306.54" y="-295.7" font-family="Times New Roman,serif" font-size="14.00">output layer</text>
</g>
<g id="clust4" class="cluster">
<title>cluster_3</title>
<text text-anchor="middle" x="428.21" y="-288.7" font-family="Times New Roman,serif" font-size="14.00">output</text>
</g>
<!-- xi -->
<g id="node1" class="node">
<title>xi</title>
<ellipse fill="none" stroke="black" cx="36.76" cy="-149" rx="18" ry="18"/>
<text text-anchor="start" x="32.26" y="-145.72" font-family="Times New Roman,serif" font-weight="bold" font-size="12.00">x</text>
<text text-anchor="start" x="38.26" y="-145.72" font-family="Times New Roman,serif" font-weight="bold" baseline-shift="sub" font-size="12.00">i</text>
</g>
<!-- hn -->
<g id="node4" class="node">
<title>hn</title>
<ellipse fill="none" stroke="black" cx="170.2" cy="-37" rx="20.67" ry="20.67"/>
<text text-anchor="start" x="161.95" y="-33.73" font-family="Times New Roman,serif" font-weight="bold" font-size="12.00">u</text>
<text text-anchor="start" x="167.95" y="-33.73" font-family="Times New Roman,serif" font-weight="bold" baseline-shift="sub" font-size="12.00">n</text>
<text text-anchor="start" x="173.2" y="-33.73" font-family="Times New Roman,serif" font-weight="bold" baseline-shift="super" font-size="12.00">h</text>
</g>
<!-- xi&#45;&gt;hn -->
<g id="edge7" class="edge">
<title>xi&#45;&gt;hn</title>
<path fill="none" stroke="black" d="M50.85,-137.85C72.88,-119.08 117.68,-80.9 145.4,-57.28"/>
<polygon fill="black" stroke="black" points="147.41,-59.31 152.75,-50.16 142.87,-53.99 147.41,-59.31"/>
</g>
<!-- h1 -->
<g id="node5" class="node">
<title>h1</title>
<ellipse fill="none" stroke="black" cx="170.2" cy="-261" rx="20.67" ry="20.67"/>
<text text-anchor="start" x="161.95" y="-257.73" font-family="Times New Roman,serif" font-weight="bold" font-size="12.00">u</text>
<text text-anchor="start" x="167.95" y="-257.73" font-family="Times New Roman,serif" font-weight="bold" baseline-shift="sub" font-size="12.00">1</text>
<text text-anchor="start" x="173.2" y="-257.73" font-family="Times New Roman,serif" font-weight="bold" baseline-shift="super" font-size="12.00">h</text>
</g>
<!-- xi&#45;&gt;h1 -->
<g id="edge8" class="edge">
<title>xi&#45;&gt;h1</title>
<path fill="none" stroke="black" d="M50.85,-160.15C72.88,-178.92 117.68,-217.1 145.4,-240.72"/>
<polygon fill="black" stroke="black" points="142.87,-244.01 152.75,-247.84 147.41,-238.69 142.87,-244.01"/>
</g>
<!-- hj -->
<g id="node6" class="node">
<title>hj</title>
<ellipse fill="none" stroke="black" cx="170.2" cy="-149" rx="19.24" ry="19.24"/>
<text text-anchor="start" x="163.07" y="-145.72" font-family="Times New Roman,serif" font-weight="bold" font-size="12.00">u</text>
<text text-anchor="start" x="169.07" y="-145.72" font-family="Times New Roman,serif" font-weight="bold" baseline-shift="sub" font-size="12.00">j</text>
<text text-anchor="start" x="172.07" y="-145.72" font-family="Times New Roman,serif" font-weight="bold" baseline-shift="super" font-size="12.00">h</text>
</g>
<!-- xi&#45;&gt;hj -->
<g id="edge9" class="edge">
<title>xi&#45;&gt;hj</title>
<path fill="none" stroke="black" d="M55.22,-149C76.87,-149 114.11,-149 140.11,-149"/>
<polygon fill="black" stroke="black" points="139.82,-152.5 149.82,-149 139.82,-145.5 139.82,-152.5"/>
<text text-anchor="start" x="85.66" y="-140.5" font-family="Times New Roman,serif" font-weight="bold" font-size="10.00">w</text>
<text text-anchor="start" x="91.66" y="-140.5" font-family="Times New Roman,serif" font-weight="bold" baseline-shift="sub" font-size="10.00">ji</text>
</g>
<!-- xm -->
<g id="node2" class="node">
<title>xm</title>
<ellipse fill="none" stroke="black" cx="36.76" cy="-40" rx="18.76" ry="18.76"/>
<text text-anchor="start" x="30.01" y="-36.73" font-family="Times New Roman,serif" font-weight="bold" font-size="12.00">x</text>
<text text-anchor="start" x="36.01" y="-36.73" font-family="Times New Roman,serif" font-weight="bold" baseline-shift="sub" font-size="12.00">m</text>
</g>
<!-- xm&#45;&gt;hn -->
<g id="edge1" class="edge">
<title>xm&#45;&gt;hn</title>
<path fill="none" stroke="black" d="M55.76,-39.59C77.07,-39.1 112.91,-38.28 138.61,-37.7"/>
<polygon fill="black" stroke="black" points="138.35,-41.18 148.27,-37.45 138.19,-34.18 138.35,-41.18"/>
</g>
<!-- xm&#45;&gt;h1 -->
<g id="edge2" class="edge">
<title>xm&#45;&gt;h1</title>
<path fill="none" stroke="black" d="M47.22,-55.89C69.48,-93.33 125.42,-187.39 153.13,-233.99"/>
<polygon fill="black" stroke="black" points="150.63,-235.63 158.75,-242.43 156.65,-232.05 150.63,-235.63"/>
</g>
<!-- xm&#45;&gt;hj -->
<g id="edge3" class="edge">
<title>xm&#45;&gt;hj</title>
<path fill="none" stroke="black" d="M51.83,-51.66C74.54,-70.5 119.47,-107.76 146.67,-130.32"/>
<polygon fill="black" stroke="black" points="143.9,-133.4 153.83,-137.09 148.37,-128.01 143.9,-133.4"/>
</g>
<!-- x1 -->
<g id="node3" class="node">
<title>x1</title>
<ellipse fill="none" stroke="black" cx="36.76" cy="-257" rx="18" ry="18"/>
<text text-anchor="start" x="31.14" y="-253.72" font-family="Times New Roman,serif" font-weight="bold" font-size="12.00">x</text>
<text text-anchor="start" x="37.14" y="-253.72" font-family="Times New Roman,serif" font-weight="bold" baseline-shift="sub" font-size="12.00">1</text>
</g>
<!-- x1&#45;&gt;hn -->
<g id="edge4" class="edge">
<title>x1&#45;&gt;hn</title>
<path fill="none" stroke="black" d="M46.8,-241.88C68.78,-205.08 125.3,-110.48 153.17,-63.83"/>
<polygon fill="black" stroke="black" points="156.53,-66.02 158.66,-55.64 150.52,-62.43 156.53,-66.02"/>
</g>
<!-- x1&#45;&gt;h1 -->
<g id="edge5" class="edge">
<title>x1&#45;&gt;h1</title>
<path fill="none" stroke="black" d="M55.22,-257.53C76.38,-258.18 112.44,-259.27 138.34,-260.06"/>
<polygon fill="black" stroke="black" points="137.98,-263.58 148.08,-260.39 138.2,-256.59 137.98,-263.58"/>
</g>
<!-- x1&#45;&gt;hj -->
<g id="edge6" class="edge">
<title>x1&#45;&gt;hj</title>
<path fill="none" stroke="black" d="M51.33,-245.85C73.82,-227.37 119.05,-190.2 146.48,-167.67"/>
<polygon fill="black" stroke="black" points="148.2,-169.96 153.7,-160.91 143.76,-164.55 148.2,-169.96"/>
</g>
<!-- uk -->
<g id="node7" class="node">
<title>uk</title>
<ellipse fill="none" stroke="black" cx="306.54" cy="-148" rx="20.67" ry="20.67"/>
<text text-anchor="start" x="298.29" y="-144.72" font-family="Times New Roman,serif" font-weight="bold" font-size="12.00">u</text>
<text text-anchor="start" x="304.29" y="-144.72" font-family="Times New Roman,serif" font-weight="bold" baseline-shift="sub" font-size="12.00">k</text>
<text text-anchor="start" x="310.29" y="-144.72" font-family="Times New Roman,serif" font-weight="bold" baseline-shift="super" font-size="12.00">o</text>
</g>
<!-- hn&#45;&gt;uk -->
<g id="edge10" class="edge">
<title>hn&#45;&gt;uk</title>
<path fill="none" stroke="black" d="M186.87,-49.95C210.23,-69.25 254.35,-105.71 281.72,-128.32"/>
<polygon fill="black" stroke="black" points="279.03,-131.46 288.96,-135.13 283.48,-126.06 279.03,-131.46"/>
</g>
<!-- ul -->
<g id="node8" class="node">
<title>ul</title>
<ellipse fill="none" stroke="black" cx="306.54" cy="-37" rx="18.76" ry="18.76"/>
<text text-anchor="start" x="299.79" y="-33.73" font-family="Times New Roman,serif" font-weight="bold" font-size="12.00">u</text>
<text text-anchor="start" x="305.79" y="-33.73" font-family="Times New Roman,serif" font-weight="bold" baseline-shift="sub" font-size="12.00">l</text>
<text text-anchor="start" x="308.79" y="-33.73" font-family="Times New Roman,serif" font-weight="bold" baseline-shift="super" font-size="12.00">o</text>
</g>
<!-- hn&#45;&gt;ul -->
<g id="edge11" class="edge">
<title>hn&#45;&gt;ul</title>
<path fill="none" stroke="black" d="M191.31,-37C213.91,-37 250.78,-37 276.5,-37"/>
<polygon fill="black" stroke="black" points="276.44,-40.5 286.44,-37 276.44,-33.5 276.44,-40.5"/>
</g>
<!-- u1 -->
<g id="node9" class="node">
<title>u1</title>
<ellipse fill="none" stroke="black" cx="306.54" cy="-261" rx="20.19" ry="20.19"/>
<text text-anchor="start" x="298.66" y="-257.73" font-family="Times New Roman,serif" font-weight="bold" font-size="12.00">u</text>
<text text-anchor="start" x="304.66" y="-257.73" font-family="Times New Roman,serif" font-weight="bold" baseline-shift="sub" font-size="12.00">1</text>
<text text-anchor="start" x="309.91" y="-257.73" font-family="Times New Roman,serif" font-weight="bold" baseline-shift="super" font-size="12.00">o</text>
</g>
<!-- hn&#45;&gt;u1 -->
<g id="edge12" class="edge">
<title>hn&#45;&gt;u1</title>
<path fill="none" stroke="black" d="M181.74,-54.58C205.19,-93.68 261.81,-188.08 289.6,-234.43"/>
<polygon fill="black" stroke="black" points="287.08,-236.04 295.23,-242.81 293.09,-232.44 287.08,-236.04"/>
</g>
<!-- h1&#45;&gt;uk -->
<g id="edge13" class="edge">
<title>h1&#45;&gt;uk</title>
<path fill="none" stroke="black" d="M186.61,-248.04C209.99,-228.37 254.61,-190.84 282.05,-167.76"/>
<polygon fill="black" stroke="black" points="283.91,-169.93 289.31,-160.81 279.4,-164.57 283.91,-169.93"/>
</g>
<!-- h1&#45;&gt;ul -->
<g id="edge14" class="edge">
<title>h1&#45;&gt;ul</title>
<path fill="none" stroke="black" d="M181.74,-243.42C205.42,-203.93 262.92,-108.06 290.41,-62.22"/>
<polygon fill="black" stroke="black" points="293.81,-64.36 295.95,-53.98 287.81,-60.76 293.81,-64.36"/>
</g>
<!-- h1&#45;&gt;u1 -->
<g id="edge15" class="edge">
<title>h1&#45;&gt;u1</title>
<path fill="none" stroke="black" d="M191.31,-261C213.52,-261 249.54,-261 275.19,-261"/>
<polygon fill="black" stroke="black" points="275.16,-264.5 285.16,-261 275.16,-257.5 275.16,-264.5"/>
</g>
<!-- hj&#45;&gt;uk -->
<g id="edge18" class="edge">
<title>hj&#45;&gt;uk</title>
<path fill="none" stroke="black" d="M189.88,-148.86C211.86,-148.7 248.67,-148.42 274.86,-148.23"/>
<polygon fill="black" stroke="black" points="274.73,-151.72 284.71,-148.15 274.68,-144.72 274.73,-151.72"/>
<text text-anchor="start" x="218.12" y="-140.04" font-family="Times New Roman,serif" font-weight="bold" font-size="10.00">w</text>
<text text-anchor="start" x="224.12" y="-140.04" font-family="Times New Roman,serif" font-weight="bold" baseline-shift="sub" font-size="10.00">kj</text>
<text text-anchor="start" x="189.88" y="-126.11" font-family="Times New Roman,serif" font-weight="bold" font-style="italic" font-size="25.00">f</text>
</g>
<!-- hj&#45;&gt;ul -->
<g id="edge16" class="edge">
<title>hj&#45;&gt;ul</title>
<path fill="none" stroke="black" d="M185.57,-137.01C209.03,-117.46 255.68,-78.57 283.39,-55.47"/>
<polygon fill="black" stroke="black" points="285.23,-57.66 290.67,-48.56 280.74,-52.28 285.23,-57.66"/>
</g>
<!-- hj&#45;&gt;u1 -->
<g id="edge17" class="edge">
<title>hj&#45;&gt;u1</title>
<path fill="none" stroke="black" d="M185.57,-160.99C208.66,-180.23 254.23,-218.22 282.08,-241.44"/>
<polygon fill="black" stroke="black" points="279.52,-244.7 289.45,-248.42 284.01,-239.33 279.52,-244.7"/>
</g>
<!-- yk -->
<g id="node11" class="node">
<title>yk</title>
<ellipse fill="none" stroke="black" cx="428.21" cy="-148" rx="18" ry="18"/>
<text text-anchor="start" x="422.21" y="-144.72" font-family="Times New Roman,serif" font-weight="bold" font-size="12.00">ŷ</text>
<text text-anchor="start" x="428.21" y="-144.72" font-family="Times New Roman,serif" font-weight="bold" baseline-shift="sub" font-size="12.00">k</text>
</g>
<!-- uk&#45;&gt;yk -->
<g id="edge20" class="edge">
<title>uk&#45;&gt;yk</title>
<path fill="none" stroke="black" d="M327.57,-148C347.08,-148 376.94,-148 398.88,-148"/>
<polygon fill="black" stroke="black" points="398.84,-151.5 408.84,-148 398.84,-144.5 398.84,-151.5"/>
<text text-anchor="start" x="327.57" y="-125.25" font-family="Times New Roman,serif" font-weight="bold" font-style="italic" font-size="25.00">g</text>
</g>
<!-- yl -->
<g id="node12" class="node">
<title>yl</title>
<ellipse fill="none" stroke="black" cx="428.21" cy="-40" rx="18" ry="18"/>
<text text-anchor="start" x="423.71" y="-36.73" font-family="Times New Roman,serif" font-weight="bold" font-size="12.00">ŷ</text>
<text text-anchor="start" x="429.71" y="-36.73" font-family="Times New Roman,serif" font-weight="bold" baseline-shift="sub" font-size="12.00">l</text>
</g>
<!-- ul&#45;&gt;yl -->
<g id="edge21" class="edge">
<title>ul&#45;&gt;yl</title>
<path fill="none" stroke="black" d="M325.71,-37.46C345.2,-37.94 376.39,-38.73 399.06,-39.29"/>
<polygon fill="black" stroke="black" points="398.94,-42.82 409.03,-39.57 399.12,-35.82 398.94,-42.82"/>
</g>
<!-- y1 -->
<g id="node10" class="node">
<title>y1</title>
<ellipse fill="none" stroke="black" cx="428.21" cy="-256" rx="18" ry="18"/>
<text text-anchor="start" x="422.58" y="-252.72" font-family="Times New Roman,serif" font-weight="bold" font-size="12.00">ŷ</text>
<text text-anchor="start" x="428.58" y="-252.72" font-family="Times New Roman,serif" font-weight="bold" baseline-shift="sub" font-size="12.00">1</text>
</g>
<!-- u1&#45;&gt;y1 -->
<g id="edge19" class="edge">
<title>u1&#45;&gt;y1</title>
<path fill="none" stroke="black" d="M327.03,-260.19C346.66,-259.37 377.13,-258.09 399.31,-257.17"/>
<polygon fill="black" stroke="black" points="399.21,-260.63 409.05,-256.72 398.92,-253.64 399.21,-260.63"/>
</g>
</g>
</svg>
