<?xml version="1.0" encoding="UTF-8" standalone="no"?>
<!DOCTYPE svg PUBLIC "-//W3C//DTD SVG 1.1//EN"
 "http://www.w3.org/Graphics/SVG/1.1/DTD/svg11.dtd">
<!-- Generated by graphviz version 8.1.0 (20230707.0739)
 -->
<!-- Title: G Pages: 1 -->
<svg width="336pt" height="318pt"
 viewBox="0.00 0.00 335.53 318.00" xmlns="http://www.w3.org/2000/svg" xmlns:xlink="http://www.w3.org/1999/xlink">
<g id="graph0" class="graph" transform="scale(1 1) rotate(0) translate(4 314)">
<title>G</title>
<polygon fill="white" stroke="none" points="-4,4 -4,-314 331.53,-314 331.53,4 -4,4"/>
<g id="clust3" class="cluster">
<title>cluster_2</title>
<text text-anchor="middle" x="293.53" y="-284.7" font-family="Times New Roman,serif" font-size="14.00">output</text>
</g>
<g id="clust2" class="cluster">
<title>cluster_1</title>
<text text-anchor="middle" x="170.53" y="-284.7" font-family="Times New Roman,serif" font-size="14.00">output layer</text>
</g>
<g id="clust1" class="cluster">
<title>cluster_0</title>
<text text-anchor="middle" x="36.76" y="-284.7" font-family="Times New Roman,serif" font-size="14.00">input layer</text>
</g>
<!-- xi -->
<g id="node1" class="node">
<title>xi</title>
<ellipse fill="none" stroke="black" cx="36.76" cy="-144" rx="18" ry="18"/>
<text text-anchor="start" x="32.26" y="-140.72" font-family="Times New Roman,serif" font-weight="bold" font-size="12.00">x</text>
<text text-anchor="start" x="38.26" y="-140.72" font-family="Times New Roman,serif" font-weight="bold" baseline-shift="sub" font-size="12.00">i</text>
</g>
<!-- u1 -->
<g id="node4" class="node">
<title>u1</title>
<ellipse fill="none" stroke="black" cx="170.53" cy="-252" rx="18" ry="18"/>
<text text-anchor="start" x="164.9" y="-248.72" font-family="Times New Roman,serif" font-weight="bold" font-size="12.00">u</text>
<text text-anchor="start" x="170.9" y="-248.72" font-family="Times New Roman,serif" font-weight="bold" baseline-shift="sub" font-size="12.00">1</text>
</g>
<!-- xi&#45;&gt;u1 -->
<g id="edge7" class="edge">
<title>xi&#45;&gt;u1</title>
<path fill="none" stroke="black" d="M51.37,-155.15C74.27,-173.92 120.69,-211.97 148.04,-234.39"/>
<polygon fill="black" stroke="black" points="145.24,-237.44 155.19,-241.07 149.68,-232.02 145.24,-237.44"/>
</g>
<!-- uj -->
<g id="node5" class="node">
<title>uj</title>
<ellipse fill="none" stroke="black" cx="170.53" cy="-144" rx="18" ry="18"/>
<text text-anchor="start" x="166.03" y="-140.72" font-family="Times New Roman,serif" font-weight="bold" font-size="12.00">u</text>
<text text-anchor="start" x="172.03" y="-140.72" font-family="Times New Roman,serif" font-weight="bold" baseline-shift="sub" font-size="12.00">j</text>
</g>
<!-- xi&#45;&gt;uj -->
<g id="edge9" class="edge">
<title>xi&#45;&gt;uj</title>
<path fill="none" stroke="black" d="M55.26,-144C77.33,-144 115.56,-144 141.67,-144"/>
<polygon fill="black" stroke="black" points="141.37,-147.5 151.37,-144 141.37,-140.5 141.37,-147.5"/>
<text text-anchor="start" x="81.97" y="-131.7" font-family="Times New Roman,serif" font-weight="bold" font-size="14.00">w</text>
<text text-anchor="start" x="92.47" y="-131.7" font-family="Times New Roman,serif" font-weight="bold" baseline-shift="sub" font-size="14.00">ji</text>
</g>
<!-- un -->
<g id="node6" class="node">
<title>un</title>
<ellipse fill="none" stroke="black" cx="170.53" cy="-36" rx="18" ry="18"/>
<text text-anchor="start" x="164.9" y="-32.73" font-family="Times New Roman,serif" font-weight="bold" font-size="12.00">u</text>
<text text-anchor="start" x="170.9" y="-32.73" font-family="Times New Roman,serif" font-weight="bold" baseline-shift="sub" font-size="12.00">n</text>
</g>
<!-- xi&#45;&gt;un -->
<g id="edge8" class="edge">
<title>xi&#45;&gt;un</title>
<path fill="none" stroke="black" d="M51.37,-132.85C74.27,-114.08 120.69,-76.03 148.04,-53.61"/>
<polygon fill="black" stroke="black" points="149.68,-55.98 155.19,-46.93 145.24,-50.56 149.68,-55.98"/>
</g>
<!-- xm -->
<g id="node2" class="node">
<title>xm</title>
<ellipse fill="none" stroke="black" cx="36.76" cy="-35" rx="18.76" ry="18.76"/>
<text text-anchor="start" x="30.01" y="-31.73" font-family="Times New Roman,serif" font-weight="bold" font-size="12.00">x</text>
<text text-anchor="start" x="36.01" y="-31.73" font-family="Times New Roman,serif" font-weight="bold" baseline-shift="sub" font-size="12.00">m</text>
</g>
<!-- xm&#45;&gt;u1 -->
<g id="edge1" class="edge">
<title>xm&#45;&gt;u1</title>
<path fill="none" stroke="black" d="M47.45,-50.96C70.27,-88.54 127.52,-182.82 154.72,-227.62"/>
<polygon fill="black" stroke="black" points="152.17,-229.16 160.35,-235.89 158.15,-225.53 152.17,-229.16"/>
</g>
<!-- xm&#45;&gt;uj -->
<g id="edge2" class="edge">
<title>xm&#45;&gt;uj</title>
<path fill="none" stroke="black" d="M51.86,-46.66C74.77,-65.61 120.23,-103.22 147.45,-125.74"/>
<polygon fill="black" stroke="black" points="144.98,-129.07 154.92,-132.75 149.45,-123.67 144.98,-129.07"/>
</g>
<!-- xm&#45;&gt;un -->
<g id="edge3" class="edge">
<title>xm&#45;&gt;un</title>
<path fill="none" stroke="black" d="M55.81,-35.14C77.81,-35.3 115.26,-35.59 141.14,-35.78"/>
<polygon fill="black" stroke="black" points="141.09,-39.29 151.12,-35.87 141.14,-32.29 141.09,-39.29"/>
</g>
<!-- x1 -->
<g id="node3" class="node">
<title>x1</title>
<ellipse fill="none" stroke="black" cx="36.76" cy="-252" rx="18" ry="18"/>
<text text-anchor="start" x="31.14" y="-248.72" font-family="Times New Roman,serif" font-weight="bold" font-size="12.00">x</text>
<text text-anchor="start" x="37.14" y="-248.72" font-family="Times New Roman,serif" font-weight="bold" baseline-shift="sub" font-size="12.00">1</text>
</g>
<!-- x1&#45;&gt;u1 -->
<g id="edge4" class="edge">
<title>x1&#45;&gt;u1</title>
<path fill="none" stroke="black" d="M55.26,-252C77.33,-252 115.56,-252 141.67,-252"/>
<polygon fill="black" stroke="black" points="141.37,-255.5 151.37,-252 141.37,-248.5 141.37,-255.5"/>
</g>
<!-- x1&#45;&gt;uj -->
<g id="edge5" class="edge">
<title>x1&#45;&gt;uj</title>
<path fill="none" stroke="black" d="M51.37,-240.85C74.27,-222.08 120.69,-184.03 148.04,-161.61"/>
<polygon fill="black" stroke="black" points="149.68,-163.98 155.19,-154.93 145.24,-158.56 149.68,-163.98"/>
</g>
<!-- x1&#45;&gt;un -->
<g id="edge6" class="edge">
<title>x1&#45;&gt;un</title>
<path fill="none" stroke="black" d="M47.03,-236.81C69.52,-199.94 127.17,-105.44 154.59,-60.48"/>
<polygon fill="black" stroke="black" points="158.05,-62.53 160.27,-52.17 152.07,-58.89 158.05,-62.53"/>
</g>
<!-- y1 -->
<g id="node7" class="node">
<title>y1</title>
<ellipse fill="none" stroke="black" cx="293.53" cy="-252" rx="18" ry="18"/>
<text text-anchor="start" x="287.9" y="-248.72" font-family="Times New Roman,serif" font-weight="bold" font-size="12.00">ŷ</text>
<text text-anchor="start" x="293.9" y="-248.72" font-family="Times New Roman,serif" font-weight="bold" baseline-shift="sub" font-size="12.00">1</text>
</g>
<!-- u1&#45;&gt;y1 -->
<g id="edge10" class="edge">
<title>u1&#45;&gt;y1</title>
<path fill="none" stroke="black" d="M188.86,-252C208.54,-252 240.93,-252 264.27,-252"/>
<polygon fill="black" stroke="black" points="264.22,-255.5 274.22,-252 264.22,-248.5 264.22,-255.5"/>
<text text-anchor="start" x="221.32" y="-238.75" font-family="Times New Roman,serif" font-weight="bold" font-style="italic" font-size="15.00">f</text>
</g>
<!-- yj -->
<g id="node8" class="node">
<title>yj</title>
<ellipse fill="none" stroke="black" cx="293.53" cy="-144" rx="18" ry="18"/>
<text text-anchor="start" x="289.03" y="-140.72" font-family="Times New Roman,serif" font-weight="bold" font-size="12.00">ŷ</text>
<text text-anchor="start" x="295.03" y="-140.72" font-family="Times New Roman,serif" font-weight="bold" baseline-shift="sub" font-size="12.00">j</text>
</g>
<!-- uj&#45;&gt;yj -->
<g id="edge11" class="edge">
<title>uj&#45;&gt;yj</title>
<path fill="none" stroke="black" d="M188.86,-144C208.54,-144 240.93,-144 264.27,-144"/>
<polygon fill="black" stroke="black" points="264.22,-147.5 274.22,-144 264.22,-140.5 264.22,-147.5"/>
<text text-anchor="start" x="221.32" y="-130.75" font-family="Times New Roman,serif" font-weight="bold" font-style="italic" font-size="15.00">f</text>
</g>
<!-- yn -->
<g id="node9" class="node">
<title>yn</title>
<ellipse fill="none" stroke="black" cx="293.53" cy="-36" rx="18" ry="18"/>
<text text-anchor="start" x="287.9" y="-32.73" font-family="Times New Roman,serif" font-weight="bold" font-size="12.00">ŷ</text>
<text text-anchor="start" x="293.9" y="-32.73" font-family="Times New Roman,serif" font-weight="bold" baseline-shift="sub" font-size="12.00">n</text>
</g>
<!-- un&#45;&gt;yn -->
<g id="edge12" class="edge">
<title>un&#45;&gt;yn</title>
<path fill="none" stroke="black" d="M188.86,-36C208.54,-36 240.93,-36 264.27,-36"/>
<polygon fill="black" stroke="black" points="264.22,-39.5 274.22,-36 264.22,-32.5 264.22,-39.5"/>
<text text-anchor="start" x="221.32" y="-22.75" font-family="Times New Roman,serif" font-weight="bold" font-style="italic" font-size="15.00">f</text>
</g>
</g>
</svg>
