<?xml version="1.0" encoding="UTF-8" standalone="no"?>
<!DOCTYPE svg PUBLIC "-//W3C//DTD SVG 1.1//EN"
 "http://www.w3.org/Graphics/SVG/1.1/DTD/svg11.dtd">
<!-- Generated by graphviz version 8.1.0 (20230707.0739)
 -->
<!-- Title: G Pages: 1 -->
<svg width="238pt" height="202pt"
 viewBox="0.00 0.00 237.50 202.00" xmlns="http://www.w3.org/2000/svg" xmlns:xlink="http://www.w3.org/1999/xlink">
<g id="graph0" class="graph" transform="scale(1 1) rotate(0) translate(4 198)">
<title>G</title>
<polygon fill="white" stroke="none" points="-4,4 -4,-198 233.5,-198 233.5,4 -4,4"/>
<!-- x1 -->
<g id="node1" class="node">
<title>x1</title>
<ellipse fill="none" stroke="black" cx="18" cy="-176" rx="18" ry="18"/>
<text text-anchor="start" x="12.38" y="-172.72" font-family="Times New Roman,serif" font-weight="bold" font-size="12.00">x</text>
<text text-anchor="start" x="18.38" y="-172.72" font-family="Times New Roman,serif" font-weight="bold" baseline-shift="sub" font-size="12.00">1</text>
</g>
<!-- u -->
<g id="node4" class="node">
<title>u</title>
<ellipse fill="none" stroke="black" cx="113" cy="-97" rx="18" ry="18"/>
<text text-anchor="start" x="110" y="-93.72" font-family="Times New Roman,serif" font-weight="bold" font-size="12.00">u</text>
</g>
<!-- x1&#45;&gt;u -->
<g id="edge1" class="edge">
<title>x1&#45;&gt;u</title>
<path fill="none" stroke="black" d="M32.32,-164.68C47.52,-151.78 72.57,-130.49 90.53,-115.24"/>
<polygon fill="black" stroke="black" points="92.34,-117.44 97.7,-108.3 87.81,-112.1 92.34,-117.44"/>
<text text-anchor="start" x="55.28" y="-127.77" font-family="Times New Roman,serif" font-weight="bold" font-size="10.00">w</text>
<text text-anchor="start" x="61.28" y="-127.77" font-family="Times New Roman,serif" font-weight="bold" baseline-shift="sub" font-size="10.00">1</text>
</g>
<!-- x2 -->
<g id="node2" class="node">
<title>x2</title>
<ellipse fill="none" stroke="black" cx="18" cy="-97" rx="18" ry="18"/>
<text text-anchor="start" x="12.38" y="-93.72" font-family="Times New Roman,serif" font-weight="bold" font-size="12.00">x</text>
<text text-anchor="start" x="18.38" y="-93.72" font-family="Times New Roman,serif" font-weight="bold" baseline-shift="sub" font-size="12.00">2</text>
</g>
<!-- x2&#45;&gt;u -->
<g id="edge2" class="edge">
<title>x2&#45;&gt;u</title>
<path fill="none" stroke="black" d="M36.49,-97C49.87,-97 68.59,-97 84.04,-97"/>
<polygon fill="black" stroke="black" points="83.59,-100.5 93.59,-97 83.59,-93.5 83.59,-100.5"/>
<text text-anchor="start" x="54.84" y="-88.5" font-family="Times New Roman,serif" font-weight="bold" font-size="10.00">w</text>
<text text-anchor="start" x="60.84" y="-88.5" font-family="Times New Roman,serif" font-weight="bold" baseline-shift="sub" font-size="10.00">2</text>
</g>
<!-- xn -->
<g id="node3" class="node">
<title>xn</title>
<ellipse fill="none" stroke="black" cx="18" cy="-18" rx="18" ry="18"/>
<text text-anchor="start" x="12.38" y="-14.72" font-family="Times New Roman,serif" font-weight="bold" font-size="12.00">x</text>
<text text-anchor="start" x="18.38" y="-14.72" font-family="Times New Roman,serif" font-weight="bold" baseline-shift="sub" font-size="12.00">n</text>
</g>
<!-- xn&#45;&gt;u -->
<g id="edge3" class="edge">
<title>xn&#45;&gt;u</title>
<path fill="none" stroke="black" d="M32.32,-29.32C47.52,-42.22 72.57,-63.51 90.53,-78.76"/>
<polygon fill="black" stroke="black" points="87.81,-81.9 97.7,-85.7 92.34,-76.56 87.81,-81.9"/>
<text text-anchor="start" x="54.53" y="-49.23" font-family="Times New Roman,serif" font-weight="bold" font-size="10.00">w</text>
<text text-anchor="start" x="60.53" y="-49.23" font-family="Times New Roman,serif" font-weight="bold" baseline-shift="sub" font-size="10.00">n</text>
</g>
<!-- y -->
<g id="node5" class="node">
<title>y</title>
<ellipse fill="none" stroke="black" cx="211.5" cy="-97" rx="18" ry="18"/>
<text text-anchor="start" x="208.5" y="-93.72" font-family="Times New Roman,serif" font-weight="bold" font-size="12.00">ŷ</text>
</g>
<!-- u&#45;&gt;y -->
<g id="edge4" class="edge">
<title>u&#45;&gt;y</title>
<path fill="none" stroke="black" d="M131.25,-97C145.44,-97 165.82,-97 182.36,-97"/>
<polygon fill="black" stroke="black" points="182.07,-100.5 192.07,-97 182.07,-93.5 182.07,-100.5"/>
<text text-anchor="start" x="160" y="-101.2" font-family="Times New Roman,serif" font-weight="bold" font-style="italic" font-size="14.00">f</text>
</g>
</g>
</svg>
